<svg width="26" height="26" viewBox="0 0 26 26" fill="none" xmlns="http://www.w3.org/2000/svg">
<g clip-path="url(#clip0_1_231)">
<path d="M17.875 9.75C17.875 11.0429 17.3614 12.2829 16.4471 13.1971C15.5329 14.1114 14.2929 14.625 13 14.625C11.7071 14.625 10.4671 14.1114 9.55285 13.1971C8.63861 12.2829 8.125 11.0429 8.125 9.75C8.125 8.45707 8.63861 7.21709 9.55285 6.30285C10.4671 5.38861 11.7071 4.875 13 4.875C14.2929 4.875 15.5329 5.38861 16.4471 6.30285C17.3614 7.21709 17.875 8.45707 17.875 9.75Z" fill="#CDCDCD"/>
<path d="M3.25 0C2.38805 0 1.5614 0.34241 0.951903 0.951903C0.34241 1.5614 0 2.38805 0 3.25L0 22.75C0 23.612 0.34241 24.4386 0.951903 25.0481C1.5614 25.6576 2.38805 26 3.25 26H22.75C23.612 26 24.4386 25.6576 25.0481 25.0481C25.6576 24.4386 26 23.612 26 22.75V3.25C26 2.38805 25.6576 1.5614 25.0481 0.951903C24.4386 0.34241 23.612 0 22.75 0L3.25 0ZM22.75 1.625C23.181 1.625 23.5943 1.7962 23.899 2.10095C24.2038 2.4057 24.375 2.81902 24.375 3.25V22.75C24.375 23.181 24.2038 23.5943 23.899 23.899C23.5943 24.2038 23.181 24.375 22.75 24.375V22.75C22.75 21.125 21.125 16.25 13 16.25C4.875 16.25 3.25 21.125 3.25 22.75V24.375C2.81902 24.375 2.4057 24.2038 2.10095 23.899C1.7962 23.5943 1.625 23.181 1.625 22.75V3.25C1.625 2.81902 1.7962 2.4057 2.10095 2.10095C2.4057 1.7962 2.81902 1.625 3.25 1.625H22.75Z" fill="#CDCDCD"/>
</g>
<defs>
<clipPath id="clip0_1_231">
<rect width="26" height="26" fill="white"/>
</clipPath>
</defs>
</svg>
